<?xml version="1.0" encoding="UTF-8"?>
<svg id="_图层_1" xmlns="http://www.w3.org/2000/svg" version="1.1" viewBox="0 0 997.53 1516.2">
  <!-- Generator: Adobe Illustrator 29.5.0, SVG Export Plug-In . SVG Version: 2.1.0 Build 137)  -->
  <polygon points="131.67 734.59 103.21 734.59 103.21 786.94 0 786.94 0 815.4 103.21 815.4 103.21 1011.85 131.67 1011.85 131.67 815.4 234.88 815.4 234.88 786.94 131.67 786.94 131.67 734.59"/>
  <path d="M871.43,734.59h-15.48c-69.53,0-126.1,56.57-126.1,126.1v25.05c0,69.53,56.57,126.1,126.1,126.1h15.48c69.53,0,126.1-56.57,126.1-126.1v-25.05c0-69.53-56.57-126.1-126.1-126.1h0ZM969.07,885.75c0,53.84-43.8,97.64-97.64,97.64h-15.48c-53.84,0-97.64-43.8-97.64-97.64v-25.05c0-53.84,43.8-97.64,97.64-97.64h15.48c53.84,0,97.64,43.8,97.64,97.64v25.05Z"/>
  <path d="M456.27,504.34l-164.41,507.5h30.48l51.25-158.54,9.2-28.46,71.92-222.47h59.57l71.92,222.47,9.2,28.46,51.25,158.54h30.48l-164.41-507.5h-56.45Z"/>
</svg>